<?xml version="1.0" standalone="no"?><svg xmlns="http://www.w3.org/2000/svg" viewBox="0 0 1440 320"><path fill="#000000" fill-opacity="1000" d="M0,32L34.3,48C68.6,64,137,96,206,90.7C274.3,85,343,43,411,42.7C480,43,549,85,617,112C685.7,139,754,149,823,133.3C891.4,117,960,75,1029,58.7C1097.1,43,1166,53,1234,85.3C1302.9,117,1371,171,1406,197.3L1440,224L1440,320L1405.7,320C1371.4,320,1303,320,1234,320C1165.7,320,1097,320,1029,320C960,320,891,320,823,320C754.3,320,686,320,617,320C548.6,320,480,320,411,320C342.9,320,274,320,206,320C137.1,320,69,320,34,320L0,320Z"></path></svg>