<svg xmlns="http://www.w3.org/2000/svg" viewBox="0 0 1440 320"><path fill="#5000ca" fill-opacity="1" d="M0,192L30,170.7C60,149,120,107,180,122.7C240,139,300,213,360,250.7C420,288,480,288,540,272C600,256,660,224,720,218.7C780,213,840,235,900,240C960,245,1020,235,1080,197.3C1140,160,1200,96,1260,69.3C1320,43,1380,53,1410,58.7L1440,64L1440,0L1410,0C1380,0,1320,0,1260,0C1200,0,1140,0,1080,0C1020,0,960,0,900,0C840,0,780,0,720,0C660,0,600,0,540,0C480,0,420,0,360,0C300,0,240,0,180,0C120,0,60,0,30,0L0,0Z"/></svg>